<svg id="f82a7d26-76bc-4606-be2d-f5da44367438" data-name="Layer 1" xmlns="http://www.w3.org/2000/svg" xmlns:xlink="http://www.w3.org/1999/xlink" viewBox="0 0 678.46 95.4">
  <defs>
    <linearGradient id="e1675cc7-aa3a-41d3-b0f7-3494cf7a2948" data-name="GradientFill 1" x1="14.12" y1="40.34" x2="53.03" y2="55.68" gradientUnits="userSpaceOnUse">
      <stop offset="0" stop-color="#d5b458"/>
      <stop offset="0.29" stop-color="#fbbd27"/>
      <stop offset="0.54" stop-color="#ffe036"/>
      <stop offset="0.75" stop-color="#fdc217"/>
      <stop offset="1" stop-color="#d5b458"/>
    </linearGradient>
  </defs>
  <path d="M55.74,65.12c-.05-2.66-1.42-6.45-4.63-10a48,48,0,0,0-13.29-9.76.25.25,0,0,0-.17-.08C29.32,41.26,25.41,38.2,22.22,35,11.33,23.9,16.37,5.38,31.85,1.14,38.16-.68,46.36-.09,52,1.3c7.9,2,13.73,3.74,13,6.94,0,.18-1.55,13.4-1.75,15.43a3.69,3.69,0,0,1-.48,1.95,1.3,1.3,0,0,1-1.82-.1,4.41,4.41,0,0,1-.52-2.13A22.29,22.29,0,0,0,39.56,3.32c-7.53-.42-13.35,5.74-12,14,2.28,14.26,23.32,16.93,34.63,31C64.91,51.76,67.5,57,67.5,62.05a24.26,24.26,0,0,1-.35,5.37l-11.41-2.3ZM.32,89h0c6.84,5.39,31,10.75,42.8,1.2a19.72,19.72,0,0,0,6.69-9,21.9,21.9,0,0,0-3.33-20.63C37,48.68,14,41.62,12.39,32.67L.1,29.4C-1.39,45.88,14.46,52.72,22.84,57.88c3.87,2.38,10.13,6.39,13.65,11a16,16,0,0,1,3,13,13.12,13.12,0,0,1-4.14,6.89A15.55,15.55,0,0,1,23.9,92.18c-6-.77-10.13-3.1-13.31-7.17-2.9-3.73-4.41-7.38-6-14.17-.06-1.66-2-2.18-2.51-.65Z" fill-rule="evenodd" fill="url(#e1675cc7-aa3a-41d3-b0f7-3494cf7a2948)"/>
  <path d="M115.36,32.18A31,31,0,0,0,121,35.06a13.65,13.65,0,0,0,4.52.82,6,6,0,0,0,3.57-1,3,3,0,0,0,1.35-2.55q0-2.22-4.8-5l-1.2-.7L122,25.25a15.17,15.17,0,0,1-5.24-4.58,10.2,10.2,0,0,1-1.71-5.79,9.07,9.07,0,0,1,3.27-7.2,12.52,12.52,0,0,1,8.45-2.8,20.9,20.9,0,0,1,4.13.45,38.75,38.75,0,0,1,5,1.4v8.51a28.65,28.65,0,0,0-4.93-2.54,11.39,11.39,0,0,0-4-.89,4.64,4.64,0,0,0-2.85.78,2.55,2.55,0,0,0-1,2.14,2.85,2.85,0,0,0,.62,1.77A5.62,5.62,0,0,0,125.55,18l4.21,2.35q5.3,3,7.12,5.47a9.85,9.85,0,0,1,1.82,5.94,11.08,11.08,0,0,1-3.58,8.59,13.54,13.54,0,0,1-9.5,3.27,25.19,25.19,0,0,1-4.37-.43,40.75,40.75,0,0,1-5.17-1.33l-.72-9.69Zm61.76,10.27h0V13.7H165.7V6.11h31.37V13.7H185.7V42.45Zm55.54-18.17h0a11.78,11.78,0,0,0,2.74,7.94,8.77,8.77,0,0,0,13.52,0,11.8,11.8,0,0,0,2.72-7.95,11.87,11.87,0,0,0-2.72-8,8.74,8.74,0,0,0-13.52,0,11.84,11.84,0,0,0-2.74,8Zm-8.83,0h0a20.31,20.31,0,0,1,1.38-7.56,18.79,18.79,0,0,1,4-6.3,17.21,17.21,0,0,1,5.88-4.07,17.64,17.64,0,0,1,7-1.42,18,18,0,0,1,13,5.54,18,18,0,0,1,4,6.2,21.11,21.11,0,0,1,1.35,7.61,21.23,21.23,0,0,1-.94,6.41,17.84,17.84,0,0,1-2.81,5.49,18.29,18.29,0,0,1-6.45,5.49,17.78,17.78,0,0,1-15.1.53,17.82,17.82,0,0,1-5.91-4.12,18.67,18.67,0,0,1-4-6.27,20.15,20.15,0,0,1-1.38-7.53Zm67.5,18.17h0V4.93h.82l22.37,21.2v-20h7.92V43.83h-.75l-22.45-21.2V42.45Zm64.2,0h0V6.11h22.13V13.6H363.85v6.57h11.83v7.44H363.85V34.8h14v7.65Zm66.78-10.27h0A31.41,31.41,0,0,0,428,35.06a13.6,13.6,0,0,0,4.52.82,6,6,0,0,0,3.57-1,3,3,0,0,0,1.35-2.55q0-2.22-4.81-5l-1.19-.7L429,25.25a15.17,15.17,0,0,1-5.24-4.58A10.2,10.2,0,0,1,422,14.88a9.07,9.07,0,0,1,3.27-7.2,12.51,12.51,0,0,1,8.45-2.8,20.9,20.9,0,0,1,4.13.45,38.75,38.75,0,0,1,5,1.4v8.51a29,29,0,0,0-4.93-2.54,11.39,11.39,0,0,0-4-.89,4.64,4.64,0,0,0-2.85.78,2.55,2.55,0,0,0-1,2.14,2.85,2.85,0,0,0,.62,1.77A5.62,5.62,0,0,0,432.51,18l4.21,2.35q5.29,3,7.11,5.47a9.8,9.8,0,0,1,1.83,5.94,11.08,11.08,0,0,1-3.58,8.59,13.54,13.54,0,0,1-9.5,3.27,25.09,25.09,0,0,1-4.37-.43A41.31,41.31,0,0,1,423,41.87l-.72-9.69Zm61.77,10.27h0V13.7H472.66V6.11H504V13.7H492.66V42.45Zm55.54-18.17h0a11.78,11.78,0,0,0,2.74,7.94,8.76,8.76,0,0,0,13.51,0,11.81,11.81,0,0,0,2.73-7.95,11.88,11.88,0,0,0-2.73-8,8.73,8.73,0,0,0-13.51,0,11.84,11.84,0,0,0-2.74,8Zm-8.83,0h0a20.51,20.51,0,0,1,1.37-7.56,19,19,0,0,1,4.06-6.3,17.21,17.21,0,0,1,5.88-4.07,17.64,17.64,0,0,1,7-1.42,18,18,0,0,1,13,5.54,18,18,0,0,1,4,6.2,21.11,21.11,0,0,1,1.35,7.61,21.23,21.23,0,0,1-.94,6.41,17.84,17.84,0,0,1-2.81,5.49,18.29,18.29,0,0,1-6.45,5.49,17.75,17.75,0,0,1-21-3.59,18.85,18.85,0,0,1-4.06-6.27,20.35,20.35,0,0,1-1.37-7.53ZM608,12.73h-1.41V22.79h1.81a8,8,0,0,0,5-1.33,4.51,4.51,0,0,0,1.7-3.8,4.29,4.29,0,0,0-1.65-3.77c-1.11-.78-2.91-1.16-5.41-1.16Zm-9.74,29.72h0V6.11h9.24a31.29,31.29,0,0,1,6.89.59,11.82,11.82,0,0,1,4.33,2,9.93,9.93,0,0,1,3.11,3.59,9.67,9.67,0,0,1,1.1,4.52,10.55,10.55,0,0,1-1.72,6,11.47,11.47,0,0,1-5,4l11,15.62h-9.79l-9.59-14.27h-1.22V42.45Zm57.22,0h0V6.11h22.13V13.6H663.82v6.57h11.83v7.44H663.82V34.8h14v7.65Z" fill="#1a1a18" fill-rule="evenodd"/>
  <path d="M212.65,78.23h4.62L215,72.66l-2.34,5.57Zm-6.59,5.66h0l9-18.35h.26l8.78,18.35h-4.39l-1.12-2.59h-7.14l-1.14,2.59Zm41.61-14.56H247v4.93h.89a3.93,3.93,0,0,0,2.43-.65,2.2,2.2,0,0,0,.83-1.86,2.11,2.11,0,0,0-.81-1.85,4.71,4.71,0,0,0-2.65-.57Zm-4.76,14.56h0V66.09h4.52a15.31,15.31,0,0,1,3.37.29,5.86,5.86,0,0,1,2.12,1,5,5,0,0,1,1.53,1.76,4.79,4.79,0,0,1,.54,2.22,5.18,5.18,0,0,1-.85,2.94,5.64,5.64,0,0,1-2.44,2l5.37,7.65h-4.79l-4.7-7H247v7Zm26.16,0h0V66.09H279.9v3.67h-6.76V73h5.79v3.64h-5.79v3.52H280v3.75Zm28.28-5.66H302l-2.28-5.57-2.35,5.57Zm-6.58,5.66h0l9-18.35H300l8.78,18.35h-4.4l-1.11-2.59h-7.14L295,83.89Zm29.66,0h0V66.09h4.2v14h6.86v3.82ZM366,74h0v8.65A17.79,17.79,0,0,1,362.54,84a12.62,12.62,0,0,1-3.26.46,9,9,0,0,1-6.67-2.69,9.52,9.52,0,0,1,6.84-16.29,10,10,0,0,1,3,.43,10.32,10.32,0,0,1,2.7,1.3l-.45,4.45a9,9,0,0,0-2.44-1.83,5.8,5.8,0,0,0-2.55-.58,5.22,5.22,0,0,0-3.92,1.6,5.54,5.54,0,0,0-1.55,4,5.78,5.78,0,0,0,1.5,4.13,5,5,0,0,0,3.86,1.6,7,7,0,0,0,1.11-.09,9.82,9.82,0,0,0,1.16-.29V77.63h-3.33V74Zm13.81,9.88h0V66.09h10.84v3.67h-6.77V73h5.8v3.64h-5.8v3.52h6.86v3.75Zm23,0h0l3.65-18.38h.3l6.64,11.59,6.27-11.59H420l3.68,18.38h-4l-1.49-8.13-4.73,8.78h-.28l-5.07-8.9-1.54,8.25Zm32.93-5h0a15.71,15.71,0,0,0,2.76,1.41,6.6,6.6,0,0,0,2.22.4,2.88,2.88,0,0,0,1.75-.49,1.47,1.47,0,0,0,.66-1.24c0-.72-.79-1.55-2.36-2.45l-.58-.34L439,75.47a7.59,7.59,0,0,1-2.57-2.25,5,5,0,0,1-.83-2.83,4.43,4.43,0,0,1,1.6-3.53,6.08,6.08,0,0,1,4.13-1.37,10.05,10.05,0,0,1,2,.22,19.25,19.25,0,0,1,2.43.69v4.17a13.67,13.67,0,0,0-2.42-1.25,5.66,5.66,0,0,0-1.94-.44,2.26,2.26,0,0,0-1.4.39,1.22,1.22,0,0,0-.51,1,1.38,1.38,0,0,0,.31.87,2.69,2.69,0,0,0,.91.74l2.06,1.15a10.94,10.94,0,0,1,3.48,2.68,4.79,4.79,0,0,1,.9,2.91,5.48,5.48,0,0,1-1.75,4.21,6.71,6.71,0,0,1-4.66,1.6,13.09,13.09,0,0,1-2.14-.21,21.52,21.52,0,0,1-2.53-.65l-.36-4.75Zm31.2,0h0a15,15,0,0,0,2.76,1.41,6.5,6.5,0,0,0,2.21.4,2.84,2.84,0,0,0,1.75-.49,1.47,1.47,0,0,0,.66-1.24c0-.72-.78-1.55-2.35-2.45l-.58-.34-1.19-.68a7.4,7.4,0,0,1-2.57-2.25,5,5,0,0,1-.84-2.83,4.44,4.44,0,0,1,1.61-3.53,6.08,6.08,0,0,1,4.13-1.37,10.05,10.05,0,0,1,2,.22,19.14,19.14,0,0,1,2.42.69v4.17a13.61,13.61,0,0,0-2.41-1.25,5.66,5.66,0,0,0-1.94-.44,2.24,2.24,0,0,0-1.4.39,1.22,1.22,0,0,0-.51,1,1.43,1.43,0,0,0,.3.87,2.9,2.9,0,0,0,.91.74L474,73.07a11.19,11.19,0,0,1,3.48,2.68,4.79,4.79,0,0,1,.9,2.91,5.45,5.45,0,0,1-1.76,4.21,6.67,6.67,0,0,1-4.65,1.6,13,13,0,0,1-2.14-.21,21.15,21.15,0,0,1-2.54-.65L467,78.86Zm28.39,5h0V69.81h-5.59V66.09h15.36v3.72h-5.57V83.89ZM520.68,75h0A5.8,5.8,0,0,0,522,78.88a4.3,4.3,0,0,0,6.62,0,6.36,6.36,0,0,0,0-7.81,4.27,4.27,0,0,0-6.62,0A5.82,5.82,0,0,0,520.68,75Zm-4.32,0h0a10,10,0,0,1,.67-3.7,9.25,9.25,0,0,1,2-3.09,8.52,8.52,0,0,1,2.87-2,8.6,8.6,0,0,1,3.44-.7,8.79,8.79,0,0,1,6.36,2.72,8.62,8.62,0,0,1,1.95,3,10.87,10.87,0,0,1,.2,6.86,9.12,9.12,0,0,1-1.37,2.69,9,9,0,0,1-3.17,2.69,8.58,8.58,0,0,1-4,1A8.66,8.66,0,0,1,519,81.75a9.17,9.17,0,0,1-2-3.07,10,10,0,0,1-.67-3.69Zm31.19,8.9h0V65.51h.4l11,10.39V66.09h3.88V84.57h-.37l-11-10.39v9.71Zm29.58,0h0V66.09H588v3.67h-6.76V73H587v3.64h-5.79v3.52h6.86v3.75Z" fill="#fffbdb" fill-rule="evenodd"/>
  <path d="M116,32.26a30.62,30.62,0,0,0,5.64,2.87,13.36,13.36,0,0,0,4.51.83,5.93,5.93,0,0,0,3.58-1,3,3,0,0,0,1.35-2.54q0-2.22-4.81-5l-1.19-.7-2.43-1.39a15.17,15.17,0,0,1-5.24-4.58A10.13,10.13,0,0,1,115.68,15,9.06,9.06,0,0,1,119,7.76,12.5,12.5,0,0,1,127.39,5a21,21,0,0,1,4.14.46,38.75,38.75,0,0,1,5,1.4v8.51a29.39,29.39,0,0,0-4.93-2.54,11.43,11.43,0,0,0-4-.9,4.64,4.64,0,0,0-2.85.79,2.52,2.52,0,0,0-1,2.14,2.9,2.9,0,0,0,.61,1.77,5.77,5.77,0,0,0,1.87,1.51l4.21,2.35c3.53,2,5.89,3.8,7.11,5.46a9.85,9.85,0,0,1,1.83,6,11.08,11.08,0,0,1-3.58,8.59,13.57,13.57,0,0,1-9.51,3.27,25.08,25.08,0,0,1-4.36-.43A40.87,40.87,0,0,1,116.7,42L116,32.26Zm61.77,10.27h0V13.78H166.33V6.19h31.36v7.59H186.32V42.53Zm55.53-18.17h0A11.78,11.78,0,0,0,236,32.3a8.76,8.76,0,0,0,13.51,0,11.81,11.81,0,0,0,2.73-8,11.88,11.88,0,0,0-2.73-8,8.73,8.73,0,0,0-13.51,0,11.84,11.84,0,0,0-2.75,8Zm-8.83,0h0a20.51,20.51,0,0,1,1.38-7.56,19,19,0,0,1,4-6.3,17.41,17.41,0,0,1,5.88-4.07,17.72,17.72,0,0,1,7-1.42,18.32,18.32,0,0,1,17,11.74,20.9,20.9,0,0,1,1.36,7.61,21.55,21.55,0,0,1-.94,6.41,18.53,18.53,0,0,1-2.81,5.49,18.29,18.29,0,0,1-6.45,5.49,17.78,17.78,0,0,1-15.1.53,17.86,17.86,0,0,1-5.92-4.12,18.92,18.92,0,0,1-4-6.28,20.27,20.27,0,0,1-1.38-7.52ZM292,42.53h0V5h.82l22.38,21.2v-20h7.91V43.91h-.74l-22.45-21.2V42.53Zm64.2,0h0V6.19h22.13v7.49h-13.8v6.57H376.3v7.44H364.48v7.19h14v7.65Zm66.79-10.27h0a30.9,30.9,0,0,0,5.63,2.87,13.41,13.41,0,0,0,4.52.83,6,6,0,0,0,3.58-1A3,3,0,0,0,438,32.42c0-1.48-1.59-3.15-4.8-5l-1.19-.7-2.43-1.39a15.3,15.3,0,0,1-5.25-4.58,10.19,10.19,0,0,1-1.7-5.79,9.06,9.06,0,0,1,3.27-7.2A12.48,12.48,0,0,1,434.35,5a21,21,0,0,1,4.14.46,38.75,38.75,0,0,1,5,1.4v8.51a29.09,29.09,0,0,0-4.94-2.54,11.34,11.34,0,0,0-4-.9,4.64,4.64,0,0,0-2.85.79,2.52,2.52,0,0,0-1,2.14,2.9,2.9,0,0,0,.61,1.77,5.72,5.72,0,0,0,1.86,1.51l4.22,2.35c3.52,2,5.89,3.8,7.11,5.46a9.85,9.85,0,0,1,1.83,6,11.08,11.08,0,0,1-3.58,8.59,13.57,13.57,0,0,1-9.51,3.27,25,25,0,0,1-4.36-.43A40.87,40.87,0,0,1,423.66,42l-.72-9.69ZM484.7,42.53h0V13.78H473.29V6.19h31.36v7.59H493.28V42.53Zm55.54-18.17h0A11.83,11.83,0,0,0,543,32.3a8.77,8.77,0,0,0,13.52,0,11.81,11.81,0,0,0,2.73-8,11.88,11.88,0,0,0-2.73-8,8.74,8.74,0,0,0-13.52,0,11.89,11.89,0,0,0-2.74,8Zm-8.83,0h0a20.51,20.51,0,0,1,1.38-7.56,18.84,18.84,0,0,1,4.05-6.3,17.41,17.41,0,0,1,5.88-4.07,17.71,17.71,0,0,1,7-1.42,17.94,17.94,0,0,1,13,5.54,17.8,17.8,0,0,1,4,6.2,20.9,20.9,0,0,1,1.36,7.61,21.55,21.55,0,0,1-.94,6.41,18.53,18.53,0,0,1-2.81,5.49,18.23,18.23,0,0,1-6.46,5.49,17.75,17.75,0,0,1-15.09.53,17.86,17.86,0,0,1-5.92-4.12,18.76,18.76,0,0,1-4.05-6.28,20.27,20.27,0,0,1-1.38-7.52Zm77.24-11.55h-1.42V22.87H609a8,8,0,0,0,5-1.33,4.52,4.52,0,0,0,1.71-3.8A4.27,4.27,0,0,0,614.05,14c-1.11-.78-2.91-1.16-5.4-1.16Zm-9.74,29.72h0V6.19h9.24a30.52,30.52,0,0,1,6.88.59,11.74,11.74,0,0,1,4.33,2,10,10,0,0,1,3.12,3.59,9.78,9.78,0,0,1,1.1,4.51,10.56,10.56,0,0,1-1.73,6,11.5,11.5,0,0,1-5,4l11,15.62h-9.79l-9.6-14.27h-1.22V42.53Zm57.21,0h0V6.19h22.13v7.49h-13.8v6.57h11.82v7.44H664.45v7.19h14v7.65Z" fill="#fffbdb" fill-rule="evenodd"/>
</svg>
